<?xml version="1.0" encoding="UTF-8"?>
<svg version="1.1" xmlns="http://www.w3.org/2000/svg" width="1440" height="767">
<path d="M0 0 C475.2 0 950.4 0 1440 0 C1440 253.11 1440 506.22 1440 767 C964.8 767 489.6 767 0 767 C0 513.89 0 260.78 0 0 Z " fill="#FDFEFC" transform="translate(0,0)"/>
<path d="M0 0 C475.2 0 950.4 0 1440 0 C1440 134.31 1440 268.62 1440 407 C1435.05 409.475 1435.05 409.475 1430 412 C1428.97390625 412.52464844 1427.9478125 413.04929687 1426.890625 413.58984375 C1416.87643336 418.70063682 1406.59011906 423.21781462 1396 427 C1394.9275 427.391875 1393.855 427.78375 1392.75 428.1875 C1390 429 1390 429 1386 429 C1386 429.66 1386 430.32 1386 431 C1379.1471993 433.87958504 1372.26833191 436.26464417 1365.125 438.3125 C1364.09689209 438.60882324 1363.06878418 438.90514648 1362.00952148 439.21044922 C1341.93373367 444.92230066 1321.70623519 449.70010779 1301.19116211 453.53857422 C1298.83831681 453.99058877 1298.83831681 453.99058877 1296 455 C1293.69032359 455.20206161 1291.37700573 455.36399547 1289.0625 455.5 C1284.51664539 455.70434819 1284.51664539 455.70434819 1280.0612793 456.51147461 C1277.8558585 457.03416169 1275.93565675 457.11382612 1273.671875 457.09765625 C1272.87265625 457.09443359 1272.0734375 457.09121094 1271.25 457.08789062 C1270.425 457.07951172 1269.6 457.07113281 1268.75 457.0625 C1267.48929688 457.05573242 1267.48929688 457.05573242 1266.203125 457.04882812 C1264.13538599 457.03707961 1262.06768376 457.01914522 1260 457 C1260 457.66 1260 458.32 1260 459 C1252.71409984 459.04682155 1245.42823335 459.08211748 1238.14221191 459.10362434 C1234.75718789 459.11395864 1231.37226851 459.12792229 1227.98730469 459.15087891 C1199.6178069 459.32910561 1199.6178069 459.32910561 1186 457 C1184.34267946 456.76140694 1182.68515794 456.5242011 1181.02734375 456.2890625 C1168.35954863 454.28346506 1156.09533324 451.31976187 1144 447 C1142.7934375 446.57203125 1141.586875 446.1440625 1140.34375 445.703125 C1136.89309933 444.47633254 1133.44588323 443.24012583 1130 442 C1130 441.01 1130 440.02 1130 439 C1129.05125 438.9175 1128.1025 438.835 1127.125 438.75 C1120.38423346 437.78899459 1114.38389426 435.07965631 1109 431 C1107.33049298 430.11117873 1105.64184515 429.25753937 1103.9375 428.4375 C1101.11828612 427.07664638 1098.61359233 425.74239489 1096 424 C1096 423.34 1096 422.68 1096 422 C1095.0925 421.7525 1094.185 421.505 1093.25 421.25 C1089.87503877 419.95193799 1088.25897879 418.78028159 1086 416 C1086 415.34 1086 414.68 1086 414 C1084.68 414 1083.36 414 1082 414 C1077 408.77272727 1077 408.77272727 1077 406 C1076.29875 405.814375 1075.5975 405.62875 1074.875 405.4375 C1071.98531535 403.99265767 1071.02457709 403.01639061 1069.0625 400.5625 C1066.39323388 397.24135655 1063.90109403 395.78093423 1060 394 C1056.73825796 391.28188164 1055.48506135 388.924805 1054 385 C1053.34 384.67 1052.68 384.34 1052 384 C1051.71125 383.175 1051.4225 382.35 1051.125 381.5 C1050.75375 380.675 1050.3825 379.85 1050 379 C1049.38125 378.87625 1048.7625 378.7525 1048.125 378.625 C1045.42047389 377.82955114 1045.13568788 376.95551418 1043.75 374.5625 C1042 371 1042 371 1042 369 C1041.34 369 1040.68 369 1040 369 C1039.62875 367.700625 1039.62875 367.700625 1039.25 366.375 C1038.1109775 362.90036107 1038.1109775 362.90036107 1035.875 359.8125 C1034 357 1034 357 1034 354 C1033.34 354 1032.68 354 1032 354 C1028.25896963 349.42537047 1025.65928094 344.66920988 1024 339 C1023.34 338.34 1022.68 337.68 1022 337 C1022 336.01 1022 335.02 1022 334 C1021.34 334 1020.68 334 1020 334 C1019.7525 333.29875 1019.505 332.5975 1019.25 331.875 C1018.0426709 328.85445734 1018.0426709 328.85445734 1015.875 325.875 C1014 323 1014 323 1014 320 C1013.01 319.67 1012.02 319.34 1011 319 C1009.11420063 315.78715662 1008 313.75366417 1008 310 C1007.01 309.67 1006.02 309.34 1005 309 C1003.68139648 307.29760742 1003.68139648 307.29760742 1002.37109375 305.10546875 C1001.89349609 304.31462891 1001.41589844 303.52378906 1000.92382812 302.70898438 C1000.43333984 301.87689453 999.94285156 301.04480469 999.4375 300.1875 C998.6959668 298.95676758 998.6959668 298.95676758 997.93945312 297.70117188 C994.21066413 291.47979592 994.21066413 291.47979592 993.03149414 288.79418945 C992.06454102 286.65215774 992.06454102 286.65215774 989 286 C987.28125 283.78515625 987.28125 283.78515625 985.5 281.0625 C983.41454046 277.88400355 982.19849884 276.13233256 979 274 C979 273.34 979 272.68 979 272 C978.34 272 977.68 272 977 272 C975.6953125 270.6015625 975.6953125 270.6015625 974.125 268.625 C970.08332361 263.83138382 965.45268942 260.09832266 960.57421875 256.19921875 C958 254 958 254 956 251 C954.39967406 249.90175811 954.39967406 249.90175811 952.4375 248.9375 C949.22399253 247.22918485 946.06483441 245.46046104 942.94140625 243.59375 C942.21187744 243.15812744 941.48234863 242.72250488 940.73071289 242.27368164 C939.2786264 241.40389184 937.82848357 240.53084618 936.38061523 239.65405273 C932.03690421 237.0641927 927.65829205 234.89709091 923.01049805 232.90625 C921 232 921 232 918.36328125 230.41015625 C911.1162818 226.0859136 902.21009208 223.80622026 894 222 C894 221.34 894 220.68 894 220 C893.360625 220.061875 892.72125 220.12375 892.0625 220.1875 C888.53934596 219.97179669 885.79273863 218.9742615 882.48828125 217.796875 C879.03376116 216.69056087 875.5368103 216.05740181 871.96875 215.4296875 C870 215 870 215 869 214 C866.86912599 213.78284087 864.73181716 213.62826113 862.59375 213.5 C861.29308594 213.4175 859.99242187 213.335 858.65234375 213.25 C857.26826121 213.16613606 855.88414603 213.08280939 854.5 213 C851.80168616 212.83856781 849.10399348 212.67111554 846.40625 212.5 C845.20291016 212.4278125 843.99957031 212.355625 842.75976562 212.28125 C840 212 840 212 839 211 C837.60613734 210.90186524 836.20737085 210.87201717 834.81005859 210.87060547 C833.91757416 210.86745331 833.02508972 210.86430115 832.1055603 210.86105347 C831.12970978 210.8630777 830.15385925 210.86510193 829.1484375 210.8671875 C828.14221344 210.86623077 827.13598938 210.86527405 826.09927368 210.86428833 C823.95550474 210.8636055 821.81173376 210.86546688 819.66796875 210.86962891 C816.43745037 210.87489814 813.20707606 210.86972839 809.9765625 210.86328125 C793.45754469 210.75482886 793.45754469 210.75482886 777 212 C776.67 212.33 776.34 212.66 776 213 C774.02629228 213.30810584 772.04527393 213.5694796 770.0625 213.8125 C742.52320149 217.62435877 713.49612252 224.62419721 687.7265625 235.0625 C684.23889887 236.26169666 681.63665206 236.42286652 678 236 C678 236.66 678 237.32 678 238 C676.90300781 238.40992188 675.80601562 238.81984375 674.67578125 239.2421875 C673.22134314 239.78642886 671.76691667 240.33070133 670.3125 240.875 C669.59126953 241.14441406 668.87003906 241.41382813 668.12695312 241.69140625 C667.42119141 241.95566406 666.71542969 242.21992188 665.98828125 242.4921875 C665.29968018 242.74983887 664.6110791 243.00749023 663.90161133 243.27294922 C662.30841201 243.88208359 660.73020745 244.53024304 659.15625 245.1875 C656.65622355 246.12953895 654.64984227 246.15141956 652 246 C652 246.66 652 247.32 652 248 C651.34773437 248.18175781 650.69546875 248.36351562 650.0234375 248.55078125 C646.03127376 249.69896994 642.35148261 250.8242587 638.625 252.6875 C636 254 636 254 632 254 C632 254.66 632 255.32 632 256 C628.38026598 257.31626692 625.90432869 258 622 258 C622 258.66 622 259.32 622 260 C618.49223216 261.60355101 615.85645121 262.22036864 612 262 C612 262.66 612 263.32 612 264 C604.53120618 267.03419749 597.09503073 269.62382166 589.34375 271.83984375 C586.7215844 272.74963719 584.56127066 273.707395 582.1328125 274.9921875 C577.98966898 277.12363986 573.92055384 278.2419611 569.375 279.1875 C568.60172363 279.35475586 567.82844727 279.52201172 567.03173828 279.69433594 C560.04409068 281.13351844 553.13454505 281.77059341 546 282 C546 282.66 546 283.32 546 284 C519.28530116 284.86554452 493.42535124 283.25507486 469 271 C468.34 270.34 467.68 269.68 467 269 C466.154375 268.731875 465.30875 268.46375 464.4375 268.1875 C459.95348951 266.6384782 456.08694898 264.38459503 452 262 C451.07574219 261.47535156 450.15148437 260.95070313 449.19921875 260.41015625 C447.83216797 259.61931641 447.83216797 259.61931641 446.4375 258.8125 C445.59058594 258.32394531 444.74367188 257.83539063 443.87109375 257.33203125 C443.25363281 256.89246094 442.63617188 256.45289063 442 256 C442 255.34 442 254.68 442 254 C441.34 254 440.68 254 440 254 C440 253.34 440 252.68 440 252 C439.38125 251.855625 438.7625 251.71125 438.125 251.5625 C436 251 436 251 434 250 C434 249.34 434 248.68 434 248 C432.96939453 247.90138672 432.96939453 247.90138672 431.91796875 247.80078125 C428.07575519 246.74635852 425.38358497 244.61863068 422.3125 242.1875 C421.73177734 241.74857422 421.15105469 241.30964844 420.55273438 240.85742188 C417.50382235 238.48526258 415.52099115 236.54897936 414 233 C411.94999129 232.19471111 411.94999129 232.19471111 410 232 C410 231.34 410 230.68 410 230 C408.68 229.34 407.36 228.68 406 228 C406 227.34 406 226.68 406 226 C405.443125 225.938125 404.88625 225.87625 404.3125 225.8125 C401.7223534 224.90244849 400.45321842 223.61535171 398.59765625 221.640625 C396.58718138 219.57607868 394.45963092 217.67200139 392.3125 215.75 C391.44109375 214.96882812 390.5696875 214.18765625 389.671875 213.3828125 C387.95647967 211.85300088 386.23798821 210.32664996 384.515625 208.8046875 C378.97830239 203.88458238 373.71668082 198.77645467 368.54296875 193.48046875 C366.04007509 190.94719358 366.04007509 190.94719358 363.17578125 188.80078125 C362.45777344 188.20652344 361.73976563 187.61226562 361 187 C361 186.34 361 185.68 361 185 C360.34 185 359.68 185 359 185 C359 184.34 359 183.68 359 183 C358.41347656 182.74347656 357.82695312 182.48695313 357.22265625 182.22265625 C354.79687071 180.88826104 353.32471299 179.45514672 351.4375 177.4375 C347.33874199 173.19953889 342.87342956 169.59489367 338.22265625 165.98046875 C336 164 336 164 335 161 C333.34260161 160.31061419 331.67411439 159.647737 330 159 C328.30911881 157.72427826 326.66617311 156.38375492 325.0625 155 C311.67950661 143.86818563 297.34288136 135.20391947 282 127 C280.80745605 126.35949707 280.80745605 126.35949707 279.59082031 125.70605469 C219.23758828 93.83175727 143.29451828 91.16862349 78.83886719 110.97143555 C73.86228182 112.56413945 68.92339727 114.25031734 64 116 C62.89978516 116.38623535 62.89978516 116.38623535 61.77734375 116.78027344 C51.36969751 120.49219815 41.75754635 125.60835256 32.07373047 130.87939453 C30.36354741 131.80354572 28.63867287 132.7004553 26.91015625 133.58984375 C20.35219533 136.99209415 14.37726691 141.08076352 8.3918457 145.39428711 C7.73659912 145.85971924 7.08135254 146.32515137 6.40625 146.8046875 C5.82166016 147.22733887 5.23707031 147.64999023 4.63476562 148.08544922 C3 149 3 149 0 149 C0 99.83 0 50.66 0 0 Z " fill="#B0F2AC" transform="translate(0,0)"/>
<path d="M0 0 C3.39848265 2.60917603 6.91185845 5.05888386 10.41503906 7.52490234 C13.09483306 9.61217908 15.3666234 11.91620683 17.74707031 14.34130859 C20.43612146 16.92434873 23.15388525 19.47648728 25.87207031 22.02880859 C26.5875 22.70492187 27.30292969 23.38103516 28.04003906 24.07763672 C28.7296875 24.72539062 29.41933594 25.37314453 30.12988281 26.04052734 C30.75266113 26.62664795 31.37543945 27.21276855 32.01708984 27.81665039 C33.87812077 29.52544527 33.87812077 29.52544527 36.74707031 31.34130859 C36.74707031 32.00130859 36.74707031 32.66130859 36.74707031 33.34130859 C37.40707031 33.34130859 38.06707031 33.34130859 38.74707031 33.34130859 C38.74707031 34.00130859 38.74707031 34.66130859 38.74707031 35.34130859 C39.73707031 35.67130859 40.72707031 36.00130859 41.74707031 36.34130859 C41.74707031 37.00130859 41.74707031 37.66130859 41.74707031 38.34130859 C42.62540527 38.72959839 42.62540527 38.72959839 43.52148438 39.12573242 C45.91590992 40.43352584 47.45800361 41.8386696 49.35644531 43.79052734 C50.02933594 44.474375 50.70222656 45.15822266 51.39550781 45.86279297 C52.08902344 46.57757813 52.78253906 47.29236328 53.49707031 48.02880859 C60.47317111 55.1839538 67.75134975 61.76890233 75.49707031 68.07958984 C76.74707031 69.34130859 76.74707031 69.34130859 76.74707031 71.34130859 C79.07921179 72.54758867 81.2434917 73.50678239 83.74707031 74.34130859 C85.93457031 76.27880859 85.93457031 76.27880859 87.74707031 78.34130859 C87.74707031 79.00130859 87.74707031 79.66130859 87.74707031 80.34130859 C88.51019531 80.40318359 89.27332031 80.46505859 90.05957031 80.52880859 C93.66138392 81.61772899 93.83189349 83.14934723 95.74707031 86.34130859 C98.29027233 88.5188571 101.00925113 90.41800375 103.74707031 92.34130859 C104.44445312 92.88142578 105.14183594 93.42154297 105.86035156 93.97802734 C107.84316599 95.41074419 109.3586298 95.91480136 111.74707031 96.34130859 C111.74707031 97.00130859 111.74707031 97.66130859 111.74707031 98.34130859 C113.72707031 99.00130859 115.70707031 99.66130859 117.74707031 100.34130859 C117.74707031 101.00130859 117.74707031 101.66130859 117.74707031 102.34130859 C118.40707031 102.34130859 119.06707031 102.34130859 119.74707031 102.34130859 C119.74707031 103.00130859 119.74707031 103.66130859 119.74707031 104.34130859 C120.28332031 104.60943359 120.81957031 104.87755859 121.37207031 105.15380859 C122.15582031 105.54568359 122.93957031 105.93755859 123.74707031 106.34130859 C124.61332031 106.75380859 125.47957031 107.16630859 126.37207031 107.59130859 C129.26160808 109.08958744 131.98007676 110.69624951 134.74707031 112.40380859 C138.36734293 114.60298912 141.68453299 116.10488419 145.74707031 117.34130859 C146.97880871 117.94553157 148.20071588 118.56999465 149.41503906 119.20849609 C172.6485551 130.95738284 198.26409643 132.05406489 223.74707031 132.34130859 C223.74707031 131.68130859 223.74707031 131.02130859 223.74707031 130.34130859 C225.01679687 130.17115234 226.28652344 130.00099609 227.59472656 129.82568359 C246.42905546 127.49015591 246.42905546 127.49015591 263.74707031 120.34130859 C265.83152463 119.61535267 267.93820592 118.95104207 270.05957031 118.34130859 C273.84540223 117.22480901 277.5700382 116.08960208 281.24707031 114.65380859 C284.12233924 113.57558275 286.72524728 112.81346844 289.74707031 112.34130859 C289.74707031 111.68130859 289.74707031 111.02130859 289.74707031 110.34130859 C293.04707031 109.68130859 296.34707031 109.02130859 299.74707031 108.34130859 C299.74707031 107.68130859 299.74707031 107.02130859 299.74707031 106.34130859 C303.04707031 105.68130859 306.34707031 105.02130859 309.74707031 104.34130859 C309.74707031 103.68130859 309.74707031 103.02130859 309.74707031 102.34130859 C312.32748127 101.33314803 314.91093975 100.3345975 317.49707031 99.34130859 C318.22667969 99.05513672 318.95628906 98.76896484 319.70800781 98.47412109 C320.41699219 98.20341797 321.12597656 97.93271484 321.85644531 97.65380859 C322.50581055 97.40244141 323.15517578 97.15107422 323.82421875 96.89208984 C325.74707031 96.34130859 325.74707031 96.34130859 329.74707031 96.34130859 C329.74707031 95.68130859 329.74707031 95.02130859 329.74707031 94.34130859 C330.56949219 94.09896484 331.39191406 93.85662109 332.23925781 93.60693359 C338.54714173 91.71311163 344.67520883 89.68795973 350.72363281 87.07568359 C352.74707031 86.34130859 352.74707031 86.34130859 355.74707031 86.34130859 C355.74707031 85.68130859 355.74707031 85.02130859 355.74707031 84.34130859 C356.55144531 84.22916016 356.55144531 84.22916016 357.37207031 84.11474609 C362.69722137 83.22138194 367.43047554 81.74216874 372.43457031 79.71630859 C390.65559001 72.52799401 410.49670559 68.77501256 429.55957031 64.40380859 C430.83324463 64.10933838 432.10691895 63.81486816 433.41918945 63.51147461 C439.60316407 62.12172006 445.63160685 60.98009302 451.96069336 60.55004883 C453.76922075 60.52591159 453.76922075 60.52591159 454.74707031 59.34130859 C466.70107617 57.86239093 478.8850213 58.18695061 490.90429688 58.2109375 C494.16443356 58.21637931 497.42443736 58.21091925 500.68457031 58.20458984 C502.75488312 58.20524927 504.82519584 58.20652762 506.89550781 58.20849609 C507.87135834 58.20647186 508.84720886 58.20444763 509.85263062 58.20236206 C510.74511505 58.20551422 511.63759949 58.20866638 512.55712891 58.21191406 C513.34461517 58.21270966 514.13210144 58.21350525 514.94345093 58.21432495 C516.74707031 58.34130859 516.74707031 58.34130859 517.74707031 59.34130859 C519.87794432 59.55846773 522.01525315 59.71304747 524.15332031 59.84130859 C525.45398438 59.92380859 526.75464844 60.00630859 528.09472656 60.09130859 C529.4788091 60.17517253 530.86292428 60.2584992 532.24707031 60.34130859 C534.94538416 60.50274078 537.64307684 60.67019305 540.34082031 60.84130859 C541.54416016 60.91349609 542.7475 60.98568359 543.98730469 61.06005859 C546.74707031 61.34130859 546.74707031 61.34130859 547.74707031 62.34130859 C549.13571465 62.64687086 550.53388295 62.90931667 551.93457031 63.15380859 C558.66608176 64.43367507 565.18494185 66.39347219 571.74707031 68.34130859 C571.74707031 69.00130859 571.74707031 69.66130859 571.74707031 70.34130859 C572.85501953 70.47085938 572.85501953 70.47085938 573.98535156 70.60302734 C580.56979296 71.51497666 586.00163574 73.0544734 591.95800781 75.98974609 C594.88207567 77.40673136 597.84793134 78.59212115 600.87207031 79.77880859 C605.48997781 81.68064952 609.40217531 83.9301803 613.46972656 86.80615234 C615.98411357 88.50109933 618.56957043 89.91900283 621.24707031 91.34130859 C628.61702438 95.2946593 634.86292737 99.37847726 640.74707031 105.34130859 C641.75458947 106.26673971 642.76916106 107.18454162 643.79003906 108.09521484 C644.30630859 108.55734375 644.82257812 109.01947266 645.35449219 109.49560547 C646.41635527 110.44196305 647.48152306 111.38462437 648.54980469 112.32373047 C651.28189823 114.78089636 653.4178303 116.87549874 654.74707031 120.34130859 C655.40707031 120.34130859 656.06707031 120.34130859 656.74707031 120.34130859 C661.06471571 124.53133885 664.42326221 129.35559645 667.74707031 134.34130859 C668.91496094 135.46472656 668.91496094 135.46472656 670.10644531 136.61083984 C672.9044876 139.5040818 674.81494272 142.38856111 676.87207031 145.84130859 C677.53464844 146.94474609 678.19722656 148.04818359 678.87988281 149.18505859 C680.05746138 151.17560982 681.22096003 153.17462191 682.36425781 155.18505859 C683.56639929 157.46409136 683.56639929 157.46409136 685.74707031 158.34130859 C686.86960994 160.6214672 687.79309225 162.95492526 688.74707031 165.31005859 C689.5741698 167.50691115 689.5741698 167.50691115 691.74707031 168.34130859 C692.74707031 170.11865234 692.74707031 170.11865234 693.74707031 172.27880859 C694.93120035 174.82746347 695.7346419 176.32888018 697.74707031 178.34130859 C697.74707031 179.66130859 697.74707031 180.98130859 697.74707031 182.34130859 C698.40707031 182.34130859 699.06707031 182.34130859 699.74707031 182.34130859 C702.36066646 186.02410316 703.98188807 190.13211741 705.76269531 194.25537109 C706.83489589 196.52741517 708.18114794 198.38390563 709.74707031 200.34130859 C709.74707031 201.00130859 709.74707031 201.66130859 709.74707031 202.34130859 C710.40707031 202.34130859 711.06707031 202.34130859 711.74707031 202.34130859 C712.01261719 202.89560547 712.27816406 203.44990234 712.55175781 204.02099609 C712.90496094 204.74544922 713.25816406 205.46990234 713.62207031 206.21630859 C713.97011719 206.93560547 714.31816406 207.65490234 714.67675781 208.39599609 C715.71264574 210.49265879 715.71264574 210.49265879 717.74707031 212.34130859 C717.87207031 214.96630859 717.87207031 214.96630859 717.74707031 217.34130859 C718.40707031 217.34130859 719.06707031 217.34130859 719.74707031 217.34130859 C723.74707031 222.63542624 723.74707031 222.63542624 723.74707031 226.34130859 C725.39707031 226.67130859 727.04707031 227.00130859 728.74707031 227.34130859 C728.87082031 228.51693359 728.87082031 228.51693359 728.99707031 229.71630859 C729.36832031 231.01568359 729.36832031 231.01568359 729.74707031 232.34130859 C731.07174778 233.02501309 732.40570664 233.69095045 733.74707031 234.34130859 C734.05644531 235.12505859 734.36582031 235.90880859 734.68457031 236.71630859 C736.35223285 240.83641603 739.44148582 242.62323712 743.24707031 244.71630859 C746.41741888 246.77703516 748.34260178 249.44361574 750.74707031 252.34130859 C751.40707031 252.67130859 752.06707031 253.00130859 752.74707031 253.34130859 C755.96534339 254.95044513 757.59926993 257.47757474 759.74707031 260.34130859 C759.74707031 261.00130859 759.74707031 261.66130859 759.74707031 262.34130859 C761.06707031 262.34130859 762.38707031 262.34130859 763.74707031 262.34130859 C763.74707031 263.00130859 763.74707031 263.66130859 763.74707031 264.34130859 C765.06707031 265.00130859 766.38707031 265.66130859 767.74707031 266.34130859 C767.74707031 267.00130859 767.74707031 267.66130859 767.74707031 268.34130859 C769.72707031 269.00130859 771.70707031 269.66130859 773.74707031 270.34130859 C773.74707031 271.00130859 773.74707031 271.66130859 773.74707031 272.34130859 C776.02367889 273.48234263 778.30357638 274.61611695 780.58691406 275.74365234 C782.12025391 276.50355469 782.12025391 276.50355469 783.68457031 277.27880859 C784.70421875 277.78283203 785.72386719 278.28685547 786.77441406 278.80615234 C789.74707031 280.34130859 789.74707031 280.34130859 792.20019531 281.89599609 C795.23471439 283.61803913 798.21438466 284.54890573 801.55957031 285.52880859 C802.72101563 285.87298828 803.88246094 286.21716797 805.07910156 286.57177734 C805.95953125 286.82572266 806.83996094 287.07966797 807.74707031 287.34130859 C807.74707031 288.33130859 807.74707031 289.32130859 807.74707031 290.34130859 C808.96394531 290.58880859 810.18082031 290.83630859 811.43457031 291.09130859 C820.62529542 293.12722871 829.61121014 296.1762265 838.48144531 299.30615234 C849.77044947 302.94729488 861.37046703 303.87528792 873.12841797 305.01586914 C875.74707031 305.34130859 875.74707031 305.34130859 877.54959106 305.84881592 C880.24558689 306.45303468 882.76202192 306.5045796 885.52539062 306.54663086 C886.68629211 306.56657608 887.8471936 306.5865213 889.04327393 306.60707092 C890.91532501 306.63213966 890.91532501 306.63213966 892.82519531 306.65771484 C894.10690613 306.67849594 895.38861694 306.69927704 896.70916748 306.72068787 C900.10883303 306.77575607 903.50855769 306.82523223 906.9083252 306.87353516 C910.38066845 306.92386191 913.85292637 306.97948952 917.32519531 307.03466797 C924.13241292 307.14206281 930.9397077 307.24354887 937.74707031 307.34130859 C937.74707031 306.68130859 937.74707031 306.02130859 937.74707031 305.34130859 C939.00003906 305.28072266 940.25300781 305.22013672 941.54394531 305.15771484 C943.19499756 305.07328604 944.84603866 304.98863921 946.49707031 304.90380859 C947.32207031 304.86449219 948.14707031 304.82517578 948.99707031 304.78466797 C949.79628906 304.74277344 950.59550781 304.70087891 951.41894531 304.65771484 C952.15209961 304.62105713 952.88525391 304.58439941 953.640625 304.54663086 C955.76188789 304.33986428 957.68634527 303.87117186 959.74707031 303.34130859 C963.04787236 303.11161361 966.34774432 302.96192142 969.65332031 302.81787109 C974.10169165 302.44303081 978.31499254 301.25032406 982.62353516 300.12597656 C987.47969411 298.90605356 992.39120545 298.02039996 997.30957031 297.09130859 C1018.60954164 292.92130289 1039.28341248 287.18846665 1059.74536133 279.96459961 C1061.74707031 279.34130859 1061.74707031 279.34130859 1063.74707031 279.34130859 C1063.74707031 278.68130859 1063.74707031 278.02130859 1063.74707031 277.34130859 C1064.33875 277.23173828 1064.93042969 277.12216797 1065.54003906 277.00927734 C1066.33023437 276.85072266 1067.12042969 276.69216797 1067.93457031 276.52880859 C1068.711875 276.37798828 1069.48917969 276.22716797 1070.29003906 276.07177734 C1073.12120005 275.23008083 1075.22995425 273.87827491 1077.74707031 272.34130859 C1079.7508859 271.50750613 1081.77357963 270.71813663 1083.80957031 269.96630859 C1097.62998594 264.75634826 1097.62998594 264.75634826 1110.49316406 257.57568359 C1112.74707031 256.34130859 1112.74707031 256.34130859 1117.74707031 255.34130859 C1117.74707031 324.31130859 1117.74707031 393.28130859 1117.74707031 464.34130859 C1117.08707031 464.34130859 1116.42707031 464.34130859 1115.74707031 464.34130859 C1115.74707031 465.00130859 1115.74707031 465.66130859 1115.74707031 466.34130859 C1092.59856864 475.69269007 1067.4160034 478.56324645 1042.79516602 473.62475586 C1034.08245107 471.89027553 1025.23930281 471.18643817 1016.40551758 470.34399414 C1015.19951904 470.22709229 1013.99352051 470.11019043 1012.75097656 469.98974609 C1011.66631104 469.88839355 1010.58164551 469.78704102 1009.46411133 469.68261719 C1006.74707031 469.34130859 1006.74707031 469.34130859 1003.74707031 468.34130859 C1001.09802766 468.13731814 998.46217401 467.96954548 995.80957031 467.84130859 C988.23635021 467.47321329 988.23635021 467.47321329 985.85719299 466.83181763 C983.25681977 466.2273473 980.87014949 466.21408868 978.19995117 466.21191406 C977.08877426 466.2087619 975.97759735 466.20560974 974.83274841 466.20236206 C973.63787308 466.20438629 972.44299774 466.20641052 971.21191406 466.20849609 C969.98171036 466.20753937 968.75150665 466.20658264 967.48402405 466.20559692 C964.88412424 466.20491654 962.28422272 466.20676096 959.68432617 466.2109375 C957.01595708 466.21452073 954.34778997 466.2154978 951.67944336 466.2109375 C947.83607947 466.20477332 943.99278062 466.20550479 940.14941406 466.20849609 C938.9525145 466.20647186 937.75561493 466.20444763 936.52244568 466.20236206 C934.86040855 466.2070903 934.86040855 466.2070903 933.16479492 466.21191406 C932.18868759 466.21270966 931.21258026 466.21350525 930.20689392 466.21432495 C927.61017507 466.23866344 927.61017507 466.23866344 924.74707031 467.34130859 C922.97806259 467.47288768 921.20656172 467.5716633 919.43457031 467.65380859 C911.98662185 468.15818434 904.75734096 469.52726827 897.43920898 470.96948242 C892.80399553 471.86591715 888.49637038 472.58709875 883.74707031 472.34130859 C883.74707031 473.00130859 883.74707031 473.66130859 883.74707031 474.34130859 C881.10707031 474.34130859 878.46707031 474.34130859 875.74707031 474.34130859 C875.74707031 475.00130859 875.74707031 475.66130859 875.74707031 476.34130859 C874.42707031 476.34130859 873.10707031 476.34130859 871.74707031 476.34130859 C871.74707031 477.00130859 871.74707031 477.66130859 871.74707031 478.34130859 C867.78707031 479.00130859 863.82707031 479.66130859 859.74707031 480.34130859 C859.74707031 481.00130859 859.74707031 481.66130859 859.74707031 482.34130859 C859.01101563 482.60685547 858.27496094 482.87240234 857.51660156 483.14599609 C856.54078125 483.49919922 855.56496094 483.85240234 854.55957031 484.21630859 C853.59664062 484.56435547 852.63371094 484.91240234 851.64160156 485.27099609 C848.99072173 486.25121347 846.36576051 487.27851294 843.74707031 488.34130859 C843.74707031 489.00130859 843.74707031 489.66130859 843.74707031 490.34130859 C843.04582031 490.58880859 842.34457031 490.83630859 841.62207031 491.09130859 C837.72370812 492.78624868 834.20478691 494.88359199 831.18457031 497.90380859 C828.46940596 500.61897295 825.35627014 502.13824199 821.74707031 503.34130859 C821.28300781 504.30037109 821.28300781 504.30037109 820.80957031 505.27880859 C819.51283651 507.79599774 818.32489661 508.31017808 815.74707031 509.34130859 C815.74707031 510.00130859 815.74707031 510.66130859 815.74707031 511.34130859 C814.09635635 512.36742808 812.42737025 513.36439002 810.74707031 514.34130859 C810.19019531 514.89818359 809.63332031 515.45505859 809.05957031 516.02880859 C808.62644531 516.46193359 808.19332031 516.89505859 807.74707031 517.34130859 C807.08707031 517.34130859 806.42707031 517.34130859 805.74707031 517.34130859 C805.08707031 518.66130859 804.42707031 519.98130859 803.74707031 521.34130859 C803.08707031 521.34130859 802.42707031 521.34130859 801.74707031 521.34130859 C801.74707031 522.00130859 801.74707031 522.66130859 801.74707031 523.34130859 C801.08707031 523.34130859 800.42707031 523.34130859 799.74707031 523.34130859 C799.74707031 524.00130859 799.74707031 524.66130859 799.74707031 525.34130859 C798.09635635 526.36742808 796.42737025 527.36439002 794.74707031 528.34130859 C794.19019531 528.89818359 793.63332031 529.45505859 793.05957031 530.02880859 C792.62644531 530.46193359 792.19332031 530.89505859 791.74707031 531.34130859 C791.08707031 531.34130859 790.42707031 531.34130859 789.74707031 531.34130859 C789.74707031 532.00130859 789.74707031 532.66130859 789.74707031 533.34130859 C788.12653219 534.73034127 786.45001818 536.05463687 784.74707031 537.34130859 C783.86019531 538.08380859 782.97332031 538.82630859 782.05957031 539.59130859 C779.74707031 541.34130859 779.74707031 541.34130859 777.74707031 541.34130859 C777.74707031 542.00130859 777.74707031 542.66130859 777.74707031 543.34130859 C777.08707031 543.34130859 776.42707031 543.34130859 775.74707031 543.34130859 C775.74707031 544.00130859 775.74707031 544.66130859 775.74707031 545.34130859 C774.06738281 546.84912109 774.06738281 546.84912109 771.87207031 548.46630859 C770.793125 549.27455078 770.793125 549.27455078 769.69238281 550.09912109 C767.74707031 551.34130859 767.74707031 551.34130859 765.74707031 551.34130859 C765.74707031 552.00130859 765.74707031 552.66130859 765.74707031 553.34130859 C760.33530561 557.34130859 760.33530561 557.34130859 757.74707031 557.34130859 C757.74707031 558.00130859 757.74707031 558.66130859 757.74707031 559.34130859 C755.80957031 560.65380859 755.80957031 560.65380859 752.74707031 562.34130859 C751.35061238 563.11100982 749.95484076 563.88195686 748.55957031 564.65380859 C747.78355469 565.08048828 747.00753906 565.50716797 746.20800781 565.94677734 C743.65834746 567.39158488 741.17511559 568.92217052 738.68457031 570.46630859 C728.97870691 576.34130859 728.97870691 576.34130859 723.74707031 576.34130859 C723.74707031 577.00130859 723.74707031 577.66130859 723.74707031 578.34130859 C715.77436362 581.47053822 707.79256223 583.74133231 699.43457031 585.59130859 C698.25209717 585.85508301 697.06962402 586.11885742 695.85131836 586.390625 C687.68540222 588.12838857 680.10692306 589.17574861 671.74707031 588.34130859 C671.74707031 589.00130859 671.74707031 589.66130859 671.74707031 590.34130859 C667.12707031 590.67130859 662.50707031 591.00130859 657.74707031 591.34130859 C657.74707031 592.33130859 657.74707031 593.32130859 657.74707031 594.34130859 C656.75707031 594.34130859 655.76707031 594.34130859 654.74707031 594.34130859 C654.74707031 593.02130859 654.74707031 591.70130859 654.74707031 590.34130859 C653.52310547 590.30263672 653.52310547 590.30263672 652.27441406 590.26318359 C633.40799722 589.35989487 613.46557826 586.33875408 596.03222656 578.76708984 C593.56154542 577.6947966 591.25743263 576.83094047 588.68457031 576.09130859 C582.0388995 573.94459706 575.93540216 570.53341412 569.74707031 567.34130859 C568.18666016 566.56400391 568.18666016 566.56400391 566.59472656 565.77099609 C560.99817482 562.96120468 555.55394213 559.87543168 550.18457031 556.65380859 C549.52328125 556.25806641 548.86199219 555.86232422 548.18066406 555.45458984 C547.70757813 555.08720703 547.23449219 554.71982422 546.74707031 554.34130859 C546.74707031 553.68130859 546.74707031 553.02130859 546.74707031 552.34130859 C546.10769531 552.23818359 545.46832031 552.13505859 544.80957031 552.02880859 C544.12894531 551.80193359 543.44832031 551.57505859 542.74707031 551.34130859 C542.41707031 550.35130859 542.08707031 549.36130859 541.74707031 548.34130859 C539.98115145 547.33214826 539.98115145 547.33214826 537.74707031 546.34130859 C533.99783935 543.99803924 530.65443893 541.69596469 527.74707031 538.34130859 C527.74707031 537.68130859 527.74707031 537.02130859 527.74707031 536.34130859 C527.08707031 536.34130859 526.42707031 536.34130859 525.74707031 536.34130859 C524.7260248 535.36280665 523.72645822 534.36150433 522.74707031 533.34130859 C522.08707031 533.01130859 521.42707031 532.68130859 520.74707031 532.34130859 C520.56144531 530.88724609 520.56144531 530.88724609 520.37207031 529.40380859 C520.16582031 528.39318359 519.95957031 527.38255859 519.74707031 526.34130859 C518.42169212 525.65896347 517.08713175 524.99434578 515.74707031 524.34130859 C514.11425781 522.53662109 514.11425781 522.53662109 512.62207031 520.46630859 C512.12449219 519.78826172 511.62691406 519.11021484 511.11425781 518.41162109 C508.66434446 514.70175231 507.74707031 512.9168176 507.74707031 508.34130859 C507.12380859 508.09380859 506.50054688 507.84630859 505.85839844 507.59130859 C503.2884549 506.0697879 502.91860873 505.12753059 501.96582031 502.34130859 C501.68311279 501.54136475 501.40040527 500.7414209 501.10913086 499.91723633 C500.68241089 498.6421521 500.68241089 498.6421521 500.24707031 497.34130859 C499.64018658 495.60261181 499.03212511 493.86432563 498.42285156 492.12646484 C498.13490723 491.2938916 497.84696289 490.46131836 497.55029297 489.60351562 C496.60857519 486.95124909 495.54308923 484.36535274 494.43457031 481.77880859 C490.13997251 470.99312979 490.3620331 459.89888043 490.18457031 448.46630859 C490.1404764 445.93536605 490.09375142 443.40454182 490.04176331 440.87374878 C490.01007275 439.30900147 489.98310255 437.74414928 489.96153259 436.17922974 C489.90738864 433.33678357 489.84718915 430.71392014 489.10668945 427.95800781 C488.98801514 427.42449707 488.86934082 426.89098633 488.74707031 426.34130859 C489.40707031 425.68130859 490.06707031 425.02130859 490.74707031 424.34130859 C491.40281815 422.28680976 491.40281815 422.28680976 491.86035156 419.91162109 C492.05693359 419.03376953 492.25351562 418.15591797 492.45605469 417.25146484 C492.85626128 415.40455675 493.24699957 413.55556987 493.62792969 411.70458984 C494.89445589 406.14164839 495.88586133 403.66455162 500.74707031 400.34130859 C503.96711875 394.97791541 503.51749656 387.82745317 503.95800781 381.73779297 C504.03277344 380.81933594 504.10753906 379.90087891 504.18457031 378.95458984 C504.24515625 378.11710205 504.30574219 377.27961426 504.36816406 376.41674805 C504.74707031 374.34130859 504.74707031 374.34130859 506.74707031 372.34130859 C509.60939396 366.41965927 511.43935077 360.18457239 513.08691406 353.83740234 C513.84812096 350.95922953 514.76035035 348.1496654 515.74707031 345.34130859 C516.40707031 345.34130859 517.06707031 345.34130859 517.74707031 345.34130859 C517.87082031 344.64005859 517.99457031 343.93880859 518.12207031 343.21630859 C518.78545376 340.16474472 519.71918986 337.28789922 520.74707031 334.34130859 C521.40707031 334.34130859 522.06707031 334.34130859 522.74707031 334.34130859 C522.72386719 333.37708984 522.70066406 332.41287109 522.67675781 331.41943359 C522.6496875 329.52451172 522.6496875 329.52451172 522.62207031 327.59130859 C522.59886719 326.33833984 522.57566406 325.08537109 522.55175781 323.79443359 C522.73835215 320.49544569 523.17794323 319.12294296 524.74707031 316.34130859 C526.14162554 309.28959535 525.84542338 301.87798932 525.87207031 294.71630859 C525.87674316 293.81460937 525.88141602 292.91291016 525.88623047 291.98388672 C525.88413574 291.14019531 525.88204102 290.29650391 525.87988281 289.42724609 C525.87875488 288.66460449 525.87762695 287.90196289 525.87646484 287.11621094 C525.93966191 285.31595956 525.93966191 285.31595956 524.74707031 284.34130859 C524.44327284 282.59672905 524.18018259 280.84502616 523.93457031 279.09130859 C522.22150445 268.4980116 519.61071752 256.2049558 511.74707031 248.34130859 C511.74707031 247.02130859 511.74707031 245.70130859 511.74707031 244.34130859 C511.08707031 244.34130859 510.42707031 244.34130859 509.74707031 244.34130859 C508.56347656 242.66162109 508.56347656 242.66162109 507.30957031 240.46630859 C505.57376237 237.43000504 504.7605303 236.35028192 501.74707031 234.34130859 C501.74707031 233.68130859 501.74707031 233.02130859 501.74707031 232.34130859 C501.18503906 232.12087891 500.62300781 231.90044922 500.04394531 231.67333984 C497.02939054 229.92510315 495.25064617 227.68070757 492.99707031 225.02880859 C489.58963006 221.13396062 486.29810664 217.9344634 481.73144531 215.43896484 C479.74707031 214.34130859 479.74707031 214.34130859 476.91113281 212.42724609 C455.25971667 198.15334952 428.04259158 192.71210831 402.49707031 197.11083984 C387.59058391 200.32336588 373.85310137 207.95886429 361.70410156 217.00146484 C359.20173043 218.71466504 356.68903879 219.64452659 353.74707031 220.34130859 C353.74707031 221.00130859 353.74707031 221.66130859 353.74707031 222.34130859 C352.31136766 223.15698033 350.87343598 223.96872952 349.43457031 224.77880859 C348.6340625 225.23126953 347.83355469 225.68373047 347.00878906 226.14990234 C344.74707031 227.34130859 344.74707031 227.34130859 341.74707031 228.34130859 C341.74707031 229.00130859 341.74707031 229.66130859 341.74707031 230.34130859 C340.16925781 231.17662109 340.16925781 231.17662109 338.55957031 232.02880859 C335.95310429 233.50180141 334.3865741 234.71081721 332.24707031 236.90380859 C329.2930031 239.78402413 326.58962357 240.90035112 322.74707031 242.34130859 C321.77769531 242.73318359 320.80832031 243.12505859 319.80957031 243.52880859 C319.12894531 243.79693359 318.44832031 244.06505859 317.74707031 244.34130859 C317.74707031 245.00130859 317.74707031 245.66130859 317.74707031 246.34130859 C312.60306236 250.28417764 307.02613071 253.72855435 301.30957031 256.77880859 C297.43364991 258.8501791 293.88588655 261.29898949 290.30957031 263.84130859 C285.72765893 267.09009499 281.12440738 269.8360513 276.03222656 272.21240234 C273.02304828 273.69898786 270.29361384 275.51657105 267.53613281 277.42333984 C265.74707031 278.34130859 265.74707031 278.34130859 261.74707031 278.34130859 C261.74707031 279.00130859 261.74707031 279.66130859 261.74707031 280.34130859 C260.88984375 280.66744141 260.03261719 280.99357422 259.14941406 281.32958984 C258.00601563 281.76658203 256.86261719 282.20357422 255.68457031 282.65380859 C254.55921875 283.08306641 253.43386719 283.51232422 252.27441406 283.95458984 C249.95138497 284.86785156 247.64760441 285.83193731 245.36816406 286.84912109 C240.52997317 288.8428524 235.58126745 290.17214415 230.53613281 291.53466797 C228.58993638 292.08117912 226.66585551 292.70521241 224.74707031 293.34130859 C224.41707031 294.00130859 224.08707031 294.66130859 223.74707031 295.34130859 C221.11734311 295.62953858 218.57230056 295.80919185 215.93457031 295.90380859 C210.90472055 295.98412821 210.90472055 295.98412821 205.98754883 296.84399414 C202.69239955 297.57541172 199.40346316 297.52451009 196.04394531 297.54443359 C195.28849426 297.55013367 194.53304321 297.55583374 193.75469971 297.56170654 C192.15093374 297.57114555 190.54714848 297.57768616 188.94335938 297.58154297 C186.54682813 297.59110996 184.15120779 297.62208232 181.75488281 297.65380859 C162.55966317 297.78569865 144.01939676 293.88517694 126.74707031 285.34130859 C125.58884766 284.80763672 125.58884766 284.80763672 124.40722656 284.26318359 C118.90702708 281.66408767 113.73059012 278.59542254 108.55957031 275.40380859 C107.89417236 274.99686768 107.22877441 274.58992676 106.54321289 274.1706543 C102.47332369 271.61843665 98.83178364 268.83643897 95.26000977 265.62231445 C93.64937977 264.17962705 93.64937977 264.17962705 91.12207031 262.84130859 C87.97194194 260.85175383 86.09433393 258.21670653 83.74707031 255.34130859 C82.96332031 254.76380859 82.17957031 254.18630859 81.37207031 253.59130859 C78.01513212 250.713933 75.89545743 247.37058673 73.49316406 243.68115234 C71.87504976 241.25958352 71.87504976 241.25958352 69.53222656 239.78271484 C68.943125 239.30705078 68.35402344 238.83138672 67.74707031 238.34130859 C67.74707031 237.02130859 67.74707031 235.70130859 67.74707031 234.34130859 C67.08707031 234.34130859 66.42707031 234.34130859 65.74707031 234.34130859 C61.74707031 227.71630859 61.74707031 227.71630859 61.74707031 224.34130859 C61.08707031 224.34130859 60.42707031 224.34130859 59.74707031 224.34130859 C51.22212128 208.20262835 51.22212128 208.20262835 49.41503906 200.06396484 C48.84731076 197.749891 48.15689525 195.60641682 47.36962891 193.36254883 C45.59557456 188.07499726 44.33847674 182.71677098 43.11816406 177.27880859 C42.88299576 176.24747803 42.64782745 175.21614746 42.40553284 174.15356445 C41.66099524 170.8837539 40.92270477 167.61256986 40.18457031 164.34130859 C39.6856293 162.14590334 39.18628394 159.95058994 38.68652344 157.75537109 C37.76732461 153.7129534 36.84984088 149.67016045 35.9362793 145.62646484 C35.73509491 144.73910645 35.53391052 143.85174805 35.32662964 142.9375 C34.94045634 141.20759981 34.5642335 139.47544807 34.19802856 137.74121094 C34.02737885 136.9376416 33.85672913 136.13407227 33.6809082 135.30615234 C33.5344838 134.59966553 33.38805939 133.89317871 33.23719788 133.1652832 C32.54480747 130.5886019 31.15562661 128.59499868 29.74707031 126.34130859 C29.28408926 124.97467778 28.84963961 123.59824518 28.43457031 122.21630859 C27.26118914 118.41228255 25.61225345 115.31049164 23.55957031 111.90380859 C20.51417451 106.58000557 20.04042457 102.37396945 20.74707031 96.34130859 C19.71582031 96.27943359 18.68457031 96.21755859 17.62207031 96.15380859 C12.82395686 95.14775255 11.16757023 93.76180851 7.74707031 90.34130859 C7.74707031 89.68130859 7.74707031 89.02130859 7.74707031 88.34130859 C7.08707031 88.34130859 6.42707031 88.34130859 5.74707031 88.34130859 C5.74707031 87.68130859 5.74707031 87.02130859 5.74707031 86.34130859 C5.12832031 86.09380859 4.50957031 85.84630859 3.87207031 85.59130859 C1.34348405 84.10390491 1.02868027 82.90452851 -0.25292969 80.34130859 C-2.26962796 79.20780326 -2.26962796 79.20780326 -4.25292969 78.34130859 C-4.58292969 77.68130859 -4.91292969 77.02130859 -5.25292969 76.34130859 C-6.68216148 75.47864478 -8.14645794 74.67331091 -9.62792969 73.90380859 C-12.68624451 72.31487956 -14.83504322 70.76594893 -17.25292969 68.34130859 C-18.24292969 68.01130859 -19.23292969 67.68130859 -20.25292969 67.34130859 C-20.25292969 66.68130859 -20.25292969 66.02130859 -20.25292969 65.34130859 C-20.97480469 65.05255859 -21.69667969 64.76380859 -22.44042969 64.46630859 C-25.04459635 63.42464193 -27.64876302 62.38297526 -30.25292969 61.34130859 C-30.25292969 60.68130859 -30.25292969 60.02130859 -30.25292969 59.34130859 C-31.57292969 59.34130859 -32.89292969 59.34130859 -34.25292969 59.34130859 C-34.25292969 58.68130859 -34.25292969 58.02130859 -34.25292969 57.34130859 C-34.93355469 57.21755859 -35.61417969 57.09380859 -36.31542969 56.96630859 C-39.68067089 56.25029983 -42.95306394 55.31185734 -46.25292969 54.34130859 C-46.25292969 53.68130859 -46.25292969 53.02130859 -46.25292969 52.34130859 C-46.89230469 52.21755859 -47.53167969 52.09380859 -48.19042969 51.96630859 C-48.87105469 51.76005859 -49.55167969 51.55380859 -50.25292969 51.34130859 C-50.58292969 50.68130859 -50.91292969 50.02130859 -51.25292969 49.34130859 C-53.4176043 48.71461661 -55.61157492 48.18703485 -57.81542969 47.71630859 C-59.01296875 47.45591797 -60.21050781 47.19552734 -61.44433594 46.92724609 C-62.37117188 46.73388672 -63.29800781 46.54052734 -64.25292969 46.34130859 C-64.25292969 45.68130859 -64.25292969 45.02130859 -64.25292969 44.34130859 C-64.91292969 44.25880859 -65.57292969 44.17630859 -66.25292969 44.09130859 C-68.9277812 43.42259571 -70.67985287 42.6399658 -73.06542969 41.34130859 C-75.9308732 39.83289588 -78.21537466 39.06480404 -81.44042969 38.77880859 C-85.45488597 38.31813328 -86.87652262 37.37606417 -90.25292969 35.34130859 C-92.3770655 34.57034566 -94.52551933 33.86399674 -96.69042969 33.21630859 C-97.78226563 32.88373047 -98.87410156 32.55115234 -99.99902344 32.20849609 C-103.07667207 31.38828241 -106.10410094 30.80674633 -109.25292969 30.34130859 C-109.25292969 29.68130859 -109.25292969 29.02130859 -109.25292969 28.34130859 C-110.4865625 28.15955078 -110.4865625 28.15955078 -111.74511719 27.97412109 C-118.62427448 26.94145314 -125.44794519 25.78525564 -132.25292969 24.34130859 C-132.25292969 23.68130859 -132.25292969 23.02130859 -132.25292969 22.34130859 C-139.85485329 21.42130508 -147.37711123 21.15281069 -155.03027344 21.10302734 C-156.83921837 21.09091972 -156.83921837 21.09091972 -158.68470764 21.0785675 C-161.22867427 21.06480046 -163.77265879 21.05404568 -166.31665039 21.04614258 C-168.88311288 21.03465844 -171.44955217 21.01426388 -174.01586914 20.98461914 C-197.68113109 20.14621305 -197.68113109 20.14621305 -220.25292969 26.34130859 C-222.25252981 26.3813006 -224.25340211 26.38477658 -226.25292969 26.34130859 C-226.25292969 27.00130859 -226.25292969 27.66130859 -226.25292969 28.34130859 C-227.33832031 28.66744141 -228.42371094 28.99357422 -229.54199219 29.32958984 C-230.9873897 29.77071765 -232.43269747 30.21213955 -233.87792969 30.65380859 C-234.59078125 30.86714844 -235.30363281 31.08048828 -236.03808594 31.30029297 C-239.39589976 32.33228162 -242.38130978 33.40672422 -245.52636719 35.00927734 C-248.25292969 36.34130859 -248.25292969 36.34130859 -252.25292969 36.34130859 C-252.25292969 37.00130859 -252.25292969 37.66130859 -252.25292969 38.34130859 C-256.87292969 39.33130859 -261.49292969 40.32130859 -266.25292969 41.34130859 C-266.25292969 42.00130859 -266.25292969 42.66130859 -266.25292969 43.34130859 C-269.58626302 44.67464193 -272.91959635 46.00797526 -276.25292969 47.34130859 C-276.25292969 48.33130859 -276.25292969 49.32130859 -276.25292969 50.34130859 C-279.22292969 51.33130859 -279.22292969 51.33130859 -282.25292969 52.34130859 C-282.25292969 53.00130859 -282.25292969 53.66130859 -282.25292969 54.34130859 C-283.87542909 55.17950017 -285.50101465 56.01172019 -287.12792969 56.84130859 C-288.4853125 57.53740234 -288.4853125 57.53740234 -289.87011719 58.24755859 C-292.25292969 59.34130859 -292.25292969 59.34130859 -294.25292969 59.34130859 C-294.25292969 60.00130859 -294.25292969 60.66130859 -294.25292969 61.34130859 C-297.71446815 64.34130859 -297.71446815 64.34130859 -300.25292969 64.34130859 C-300.25292969 65.00130859 -300.25292969 65.66130859 -300.25292969 66.34130859 C-302.90031885 67.8019371 -304.14741303 68.34130859 -307.25292969 68.34130859 C-307.58292969 69.33130859 -307.91292969 70.32130859 -308.25292969 71.34130859 C-309.58626302 72.67464193 -310.91959635 74.00797526 -312.25292969 75.34130859 C-315.08103598 78.87025756 -317.35514553 81.84252206 -318.25292969 86.34130859 C-319.57292969 86.34130859 -320.89292969 86.34130859 -322.25292969 86.34130859 C-322.25292969 56.97130859 -322.25292969 27.60130859 -322.25292969 -2.65869141 C-319.28292969 -4.30869141 -316.31292969 -5.95869141 -313.25292969 -7.65869141 C-311.61132471 -8.76310665 -309.98773558 -9.89562753 -308.39746094 -11.07275391 C-228.78008479 -67.83486244 -112.44684609 -66.69626855 0 0 Z " fill="#E3F5E2" transform="translate(322.2529296875,151.65869140625)"/>
<path d="M0 0 C0.66 0.99 1.32 1.98 2 3 C4.66142613 6.76270591 6.55663057 8.64230379 11 10 C11 10.66 11 11.32 11 12 C10.071875 12.4125 9.14375 12.825 8.1875 13.25 C5.05706132 14.96867222 3.84810113 16.0430382 2 19 C1.34 19.99 0.68 20.98 0 22 C-0.3403125 20.329375 -0.3403125 20.329375 -0.6875 18.625 C-1.59887838 14.86253199 -1.59887838 14.86253199 -4.5 13.625 C-5.325 13.41875 -6.15 13.2125 -7 13 C-7.66 12.67 -8.32 12.34 -9 12 C-9 11.34 -9 10.68 -9 10 C-4.61538462 7 -4.61538462 7 -2 7 C-1.34 4.69 -0.68 2.38 0 0 Z " fill="#EC4344" transform="translate(1250,273)"/>
<path d="M0 0 C0.61875 0.86625 0.61875 0.86625 1.25 1.75 C4.09470549 5.40747849 7.23431183 8.31022274 11 11 C10.071875 11.4125 9.14375 11.825 8.1875 12.25 C5.05706132 13.96867222 3.84810113 15.0430382 2 18 C1.34 18.99 0.68 19.98 0 21 C-0.4125 20.071875 -0.825 19.14375 -1.25 18.1875 C-2.96867222 15.05706132 -4.0430382 13.84810113 -7 12 C-7.99 11.34 -8.98 10.68 -10 10 C-8.906875 9.46375 -7.81375 8.9275 -6.6875 8.375 C-2.95532156 6.27470525 -1.55739859 4.030914 0 0 Z " fill="#ED4243" transform="translate(1135,295)"/>
<path d="M0 0 C0.53625 0.7425 1.0725 1.485 1.625 2.25 C4.15264739 5.17674961 6.71827368 6.98621339 10 9 C9.401875 9.433125 8.80375 9.86625 8.1875 10.3125 C4.87587131 12.86718499 2.45122453 15.61497565 0 19 C-0.556875 18.0925 -1.11375 17.185 -1.6875 16.25 C-3.8893799 13.15546609 -5.94389725 11.20718532 -9 9 C-8.071875 8.443125 -7.14375 7.88625 -6.1875 7.3125 C-3.0580593 5.04212145 -1.70245949 3.40491897 0 0 Z " fill="#E9494C" transform="translate(948,636)"/>
<path d="M0 0 C0.66 0 1.32 0 2 0 C2.3403125 1.175625 2.3403125 1.175625 2.6875 2.375 C3.76670768 5.21535469 3.76670768 5.21535469 6.5625 6.1875 C7.366875 6.455625 8.17125 6.72375 9 7 C9.33 7.66 9.66 8.32 10 9 C9.05125 9.5775 8.1025 10.155 7.125 10.75 C4.23865902 12.82816551 3.15904259 13.75468075 2 17 C1.34 17 0.68 17 0 17 C-0.61875 16.05125 -1.2375 15.1025 -1.875 14.125 C-3.87924473 11.17758128 -4.74790731 10.16146167 -8 9 C-8 8.34 -8 7.68 -8 7 C-7.05125 6.773125 -6.1025 6.54625 -5.125 6.3125 C-1.80676612 5.30916286 -1.80676612 5.30916286 -0.625 2.375 C-0.41875 1.59125 -0.2125 0.8075 0 0 Z " fill="#E9474A" transform="translate(844,618)"/>
<path d="M0 0 C0.86625 1.1446875 0.86625 1.1446875 1.75 2.3125 C3.71703093 4.66200917 5.48476744 6.29323505 8 8 C7.236875 8.5775 6.47375 9.155 5.6875 9.75 C3.33799083 11.71703093 1.70676495 13.48476744 0 16 C-0.61875 14.88625 -0.61875 14.88625 -1.25 13.75 C-2.93745618 11.09828315 -4.70872089 9.13325986 -7 7 C-6.21625 6.5875 -5.4325 6.175 -4.625 5.75 C-1.94108344 3.9607223 -1.11901051 2.95011861 0 0 Z " fill="#EC4344" transform="translate(1293,347)"/>
<path d="M0 0 C0.99 0 1.98 0 3 0 C1.37124891 4.27804876 -1.88689844 6.98324526 -5.125 10.0625 C-12.60676328 17.36647062 -19.44647178 25.00570188 -23 35 C-23.66 35 -24.32 35 -25 35 C-23.70496796 30.61631654 -22.01031194 27.12583402 -19.5 23.3125 C-18.8915625 22.38050781 -18.283125 21.44851563 -17.65625 20.48828125 C-16.43822515 18.65837128 -15.21935103 16.82902654 -14 15 C-13.34 15 -12.68 15 -12 15 C-11.7525 14.4121875 -11.505 13.824375 -11.25 13.21875 C-9.4193057 9.96926762 -6.74384243 8.10163726 -3.875 5.78125 C-1.95741736 3.95954649 -1.01875028 2.41953192 0 0 Z " fill="#EEF9EE" transform="translate(644,453)"/>
<path d="M0 0 C0.66 0 1.32 0 2 0 C2.2475 0.61875 2.495 1.2375 2.75 1.875 C4.20628639 4.35068687 5.37812506 4.95125002 8 6 C8 6.66 8 7.32 8 8 C7.401875 8.2475 6.80375 8.495 6.1875 8.75 C3.71352479 10.16370012 2.56629745 11.65055383 1 14 C0.38125 13.195625 -0.2375 12.39125 -0.875 11.5625 C-2.74164041 8.96125481 -2.74164041 8.96125481 -5 8 C-5 7.34 -5 6.68 -5 6 C-4.360625 5.525625 -3.72125 5.05125 -3.0625 4.5625 C-0.71627037 3.0908635 -0.71627037 3.0908635 0 0 Z " fill="#E84A4F" transform="translate(805,683)"/>
<path d="M0 0 C0.33 0 0.66 0 1 0 C4.1535166 20.53695109 4.1535166 20.53695109 2 28 C-0.0546875 29.82421875 -0.0546875 29.82421875 -2 31 C-1.84660156 30.10152344 -1.69320312 29.20304687 -1.53515625 28.27734375 C-0.74350665 22.73579656 -0.63978659 17.15025261 -0.4375 11.5625 C-0.39431641 10.44939453 -0.35113281 9.33628906 -0.30664062 8.18945312 C-0.20120112 5.45974156 -0.09907971 2.72994857 0 0 Z " fill="#EEF8ED" transform="translate(821,472)"/>
<path d="M0 0 C0.66 0.33 1.32 0.66 2 1 C2.33 1.99 2.66 2.98 3 4 C5.00016466 5.20882096 5.00016466 5.20882096 7 6 C7 6.66 7 7.32 7 8 C6.401875 8.268125 5.80375 8.53625 5.1875 8.8125 C3.02775192 9.98493467 1.64209744 11.19369282 0 13 C-1.70884005 11.37660195 -3.37446717 9.70680947 -5 8 C-5 7.34 -5 6.68 -5 6 C-4.360625 5.525625 -3.72125 5.05125 -3.0625 4.5625 C-0.71627037 3.0908635 -0.71627037 3.0908635 0 0 Z " fill="#EA4547" transform="translate(1200,309)"/>
<path d="M0 0 C15.18 0 30.36 0 46 0 C46 0.66 46 1.32 46 2 C49.96 2 53.92 2 58 2 C58 2.33 58 2.66 58 3 C55.68756208 3.02685412 53.3750373 3.04632841 51.0625 3.0625 C49.77472656 3.07410156 48.48695313 3.08570313 47.16015625 3.09765625 C44 3 44 3 43 2 C41.65016252 1.87814857 40.29425299 1.82233169 38.93920898 1.79467773 C38.07839218 1.77473251 37.21757538 1.75478729 36.33067322 1.73423767 C35.39526199 1.71752518 34.45985077 1.70081268 33.49609375 1.68359375 C32.06657127 1.6524221 32.06657127 1.6524221 30.60816956 1.62062073 C27.5513559 1.55501823 24.49445344 1.49619082 21.4375 1.4375 C19.37043337 1.39432494 17.30337586 1.35071099 15.23632812 1.30664062 C10.15764405 1.19932599 5.0788703 1.09808909 0 1 C0 0.67 0 0.34 0 0 Z " fill="#C8F3C7" transform="translate(796,209)"/>
<path d="M0 0 C1.15242187 0.19464844 2.30484375 0.38929688 3.4921875 0.58984375 C4.79542969 0.82380859 4.79542969 0.82380859 6.125 1.0625 C6.125 1.3925 6.125 1.7225 6.125 2.0625 C5.43535156 2.05089844 4.74570312 2.03929687 4.03515625 2.02734375 C-7.65822135 1.49792324 -7.65822135 1.49792324 -17.875 6.0625 C-20.84170248 6.91309302 -23.83977302 7.51123014 -26.875 8.0625 C-26.545 7.4025 -26.215 6.7425 -25.875 6.0625 C-25.215 6.0625 -24.555 6.0625 -23.875 6.0625 C-23.545 5.4025 -23.215 4.7425 -22.875 4.0625 C-20.88863702 3.35623761 -18.88651741 2.69356429 -16.875 2.0625 C-16.215 1.711875 -15.555 1.36125 -14.875 1 C-9.9021789 -1.33100989 -5.28481116 -0.91675296 0 0 Z " fill="#EFF9EE" transform="translate(732.875,405.9375)"/>
<path d="M0 0 C9.24 0 18.48 0 28 0 C27 2 27 2 25.22265625 2.66796875 C24.50980469 2.83941406 23.79695312 3.01085937 23.0625 3.1875 C22.35222656 3.36667969 21.64195312 3.54585937 20.91015625 3.73046875 C19 4 19 4 17 3 C14.12089412 2.76725791 11.25853505 2.58027243 8.375 2.4375 C7.57320312 2.39431641 6.77140625 2.35113281 5.9453125 2.30664062 C3.9637489 2.20048543 1.98189729 2.09973145 0 2 C0 1.34 0 0.68 0 0 Z " fill="#ECF7EB" transform="translate(701,601)"/>
<path d="M0 0 C2.04119788 1.61594832 4.04072937 3.2856382 6 5 C6 5.66 6 6.32 6 7 C4.04072937 8.7143618 2.04119788 10.38405168 0 12 C-0.103125 11.360625 -0.20625 10.72125 -0.3125 10.0625 C-0.539375 9.381875 -0.76625 8.70125 -1 8 C-1.99 7.67 -2.98 7.34 -4 7 C-2.79618552 4.50638429 -1.54571278 2.31856917 0 0 Z " fill="#E64A4F" transform="translate(889,649)"/>
<path d="M0 0 C0 3.68861235 -1.28783096 4.65193138 -3.6328125 7.328125 C-6.5557588 10.90247077 -8.54023312 15.02299538 -10.5 19.1875 C-12.01501567 22.02815438 -13.61592628 23.86255459 -16 26 C-14.45065491 20.31601209 -11.63234382 15.71298089 -8.5625 10.75 C-7.82676758 9.52796875 -7.82676758 9.52796875 -7.07617188 8.28125 C-6.59857422 7.50265625 -6.12097656 6.7240625 -5.62890625 5.921875 C-5.19650635 5.21643555 -4.76410645 4.51099609 -4.31860352 3.78417969 C-3 2 -3 2 0 0 Z " fill="#EEF9EE" transform="translate(811,528)"/>
<path d="M0 0 C0 4.98400013 -3.94392414 7.64781485 -7.25 11.125 C-8.27287109 12.23681641 -8.27287109 12.23681641 -9.31640625 13.37109375 C-9.98027344 14.07621094 -10.64414062 14.78132812 -11.328125 15.5078125 C-11.9355957 16.15379395 -12.54306641 16.79977539 -13.16894531 17.46533203 C-15.13704254 19.11485992 -16.49017568 19.60061538 -19 20 C-13.17371096 12.84198775 -6.5617015 6.47408234 0 0 Z " fill="#EEF9EE" transform="translate(780,571)"/>
<path d="M0 0 C0.66 0.33 1.32 0.66 2 1 C-3.55637669 5.50547245 -9.12662475 9.91417374 -15 14 C-15.66 13.67 -16.32 13.34 -17 13 C-11.25 8 -11.25 8 -9 8 C-9 7.34 -9 6.68 -9 6 C-7.36209288 4.95355934 -5.68991979 3.9601817 -4 3 C-2.65368175 2.01755155 -1.31558703 1.02323436 0 0 Z M-19 14 C-18.34 14.33 -17.68 14.66 -17 15 C-18.485 16.485 -18.485 16.485 -20 18 C-20.99 17.67 -21.98 17.34 -23 17 C-21.68 16.01 -20.36 15.02 -19 14 Z " fill="#EEF9EE" transform="translate(681,424)"/>
<path d="M0 0 C2.125 1.875 2.125 1.875 4 4 C4 6 4 6 2.125 8.125 C0 10 0 10 -2 10 C-3.38938077 8.03852126 -4.7260411 6.03833424 -6 4 C-2.25 0 -2.25 0 0 0 Z " fill="#E84649" transform="translate(1287,428)"/>
<path d="M0 0 C1.98 1.65 3.96 3.3 6 5 C4.35 6.65 2.7 8.3 1 10 C-0.98 8.68 -2.96 7.36 -5 6 C-3.35 4.02 -1.7 2.04 0 0 Z " fill="#EB4445" transform="translate(1101,342)"/>
<path d="M0 0 C0.33 0.99 0.66 1.98 1 3 C1.66 3.33 2.32 3.66 3 4 C2 6 1 8 0 10 C-2 10 -2 10 -4.125 8.125 C-6 6 -6 6 -6 4 C-2.47058824 0 -2.47058824 0 0 0 Z " fill="#E54F55" transform="translate(980,678)"/>
<path d="M0 0 C1.98 1.65 3.96 3.3 6 5 C4.35 6.98 2.7 8.96 1 11 C-0.98 9.35 -2.96 7.7 -5 6 C-4.360625 5.7525 -3.72125 5.505 -3.0625 5.25 C-0.81258459 4.18437567 -0.81258459 4.18437567 -0.25 1.875 C-0.1675 1.25625 -0.085 0.6375 0 0 Z " fill="#EC4243" transform="translate(1313,292)"/>
<path d="M0 0 C0.66 1.32 1.32 2.64 2 4 C2.99 4 3.98 4 5 4 C5 4.99 5 5.98 5 7 C4.01 7.33 3.02 7.66 2 8 C1.34 8.66 0.68 9.32 0 10 C-1.37562854 8.71034824 -2.70766393 7.37310707 -4 6 C-4 4 -4 4 -2 1.875 C-1.34 1.25625 -0.68 0.6375 0 0 Z " fill="#E4555B" transform="translate(788,633)"/>
<path d="M0 0 C1.7074998 1.28062485 3.37373596 2.61767557 5 4 C5 4.66 5 5.32 5 6 C3.37373596 7.38232443 1.7074998 8.71937515 0 10 C-0.66 8.68 -1.32 7.36 -2 6 C-2.66 6 -3.32 6 -4 6 C-4 5.34 -4 4.68 -4 4 C-3.34 4 -2.68 4 -2 4 C-1.34 2.68 -0.68 1.36 0 0 Z " fill="#EB4345" transform="translate(1234,374)"/>
<path d="M0 0 C1.70884005 1.62339805 3.37446717 3.29319053 5 5 C5 7 5 7 3.625 8.5 C3.08875 8.995 2.5525 9.49 2 10 C1.34 10.66 0.68 11.32 0 12 C-0.28875 11.360625 -0.5775 10.72125 -0.875 10.0625 C-1.82823451 7.84793921 -1.82823451 7.84793921 -4 7 C-4 6.34 -4 5.68 -4 5 C-3.01 4.34 -2.02 3.68 -1 3 C-0.67 2.01 -0.34 1.02 0 0 Z " fill="#EC4244" transform="translate(1180,257)"/>
<path d="M0 0 C0.66 0 1.32 0 2 0 C3.38232443 1.62626404 4.71937515 3.2925002 6 5 C4.71034824 6.37562854 3.37310707 7.70766393 2 9 C1.34 9 0.68 9 0 9 C-1.38232443 7.37373596 -2.71937515 5.7074998 -4 4 C-3.01 3.67 -2.02 3.34 -1 3 C-0.67 2.01 -0.34 1.02 0 0 Z " fill="#E74A4F" transform="translate(907,603)"/>
<path d="M0 0 C1.98 1.32 3.96 2.64 6 4 C4.68 5.65 3.36 7.3 2 9 C1.01 8.67 0.02 8.34 -1 8 C-1 7.34 -1 6.68 -1 6 C-2.32 5.34 -3.64 4.68 -5 4 C-4.360625 3.71125 -3.72125 3.4225 -3.0625 3.125 C-0.84793921 2.17176549 -0.84793921 2.17176549 0 0 Z " fill="#E94B4F" transform="translate(859,707)"/>
<path d="M0 0 C1.9375 0.8125 1.9375 0.8125 4 2 C4.33 2.99 4.66 3.98 5 5 C4.34 5 3.68 5 3 5 C2.67 5.99 2.34 6.98 2 8 C0.68 7.34 -0.64 6.68 -2 6 C-2 2 -2 2 0 0 Z " fill="#E45056" transform="translate(812,756)"/>
<path d="M0 0 C0.33 0 0.66 0 1 0 C1.34649648 5.77494139 1.29726646 9.99303982 -2 15 C-2.99 15.66 -3.98 16.32 -5 17 C-4.45605878 12.64847025 -3.31663774 8.88267668 -1.71875 4.83203125 C-1.09438898 3.2405893 -0.54060283 1.62180848 0 0 Z " fill="#EDF5FC" transform="translate(825,538)"/>
<path d="M0 0 C-4.28970134 1.42990045 -8.57134324 1.43812176 -13.06640625 1.71875 C-15.93165746 1.81590661 -15.93165746 1.81590661 -18 3 C-20.04055005 3.07065617 -22.08334257 3.08421976 -24.125 3.0625 C-25.22070312 3.05347656 -26.31640625 3.04445312 -27.4453125 3.03515625 C-28.70988281 3.01775391 -28.70988281 3.01775391 -30 3 C-30 2.67 -30 2.34 -30 2 C-29.28972656 1.93941406 -28.57945312 1.87882813 -27.84765625 1.81640625 C-26.46900391 1.69072266 -26.46900391 1.69072266 -25.0625 1.5625 C-24.14597656 1.48128906 -23.22945312 1.40007812 -22.28515625 1.31640625 C-20.03840268 1.23955024 -20.03840268 1.23955024 -19 0 C-16.55571462 -0.26536271 -14.13903274 -0.46905592 -11.6875 -0.625 C-11.01009766 -0.6765625 -10.33269531 -0.728125 -9.63476562 -0.78125 C-6.23132333 -1.00748077 -3.25055604 -1.11972881 0 0 Z " fill="#CDF3CD" transform="translate(796,211)"/>
<path d="M0 0 C0.99 0 1.98 0 3 0 C3 0.66 3 1.32 3 2 C1.02 2.66 -0.96 3.32 -3 4 C-3 4.66 -3 5.32 -3 6 C-6.96 7.98 -6.96 7.98 -11 10 C-11 9.01 -11 8.02 -11 7 C-8.84765625 5.4296875 -8.84765625 5.4296875 -6.0625 3.875 C-2.83826582 2.20067795 -2.83826582 2.20067795 0 0 Z " fill="#EEF8F1" transform="translate(43,200)"/>
<path d="M0 0 C0.99 0.33 1.98 0.66 3 1 C0.03653214 3.47186455 -2.54041689 4.66248361 -6.25 5.6875 C-7.14203125 5.93886719 -8.0340625 6.19023438 -8.953125 6.44921875 C-9.62859375 6.63097656 -10.3040625 6.81273437 -11 7 C-11 6.01 -11 5.02 -11 4 C-10.28972656 3.79503906 -9.57945312 3.59007812 -8.84765625 3.37890625 C-7.92855469 3.10949219 -7.00945313 2.84007812 -6.0625 2.5625 C-4.68771484 2.16224609 -4.68771484 2.16224609 -3.28515625 1.75390625 C-1.0597507 1.20973949 -1.0597507 1.20973949 0 0 Z " fill="#EEF8ED" transform="translate(751,593)"/>
<path d="M0 0 C2.31 0.33 4.62 0.66 7 1 C7 3.64 7 6.28 7 9 C6.34 7.68 5.68 6.36 5 5 C4.34 5 3.68 5 3 5 C1.375 2.5 1.375 2.5 0 0 Z " fill="#ECF5FB" transform="translate(336,247)"/>
<path d="M0 0 C0.625 1.875 0.625 1.875 1 4 C0.34 4.66 -0.32 5.32 -1 6 C-2.03842565 8.31648799 -3.0421975 10.64903024 -4 13 C-5.11672285 9.64983146 -4.92467164 9.07440438 -3.6875 5.9375 C-3.42324219 5.24527344 -3.15898438 4.55304687 -2.88671875 3.83984375 C-2 2 -2 2 0 0 Z " fill="#EFF9EE" transform="translate(818,509)"/>
<path d="M0 0 C4.455 0.99 4.455 0.99 9 2 C9 2.33 9 2.66 9 3 C-0.41002278 4.33257403 -0.41002278 4.33257403 -5 3 C-5 2.67 -5 2.34 -5 2 C-3.35 1.67 -1.7 1.34 0 1 C0 0.67 0 0.34 0 0 Z " fill="#EAF6E7" transform="translate(757,406)"/>
<path d="M0 0 C-3.72965139 2.03435531 -5.66905042 3 -10 3 C-10 3.66 -10 4.32 -10 5 C-11.32 4.67 -12.64 4.34 -14 4 C-5.71518987 -1.83702532 -5.71518987 -1.83702532 0 0 Z " fill="#EEF8F1" transform="translate(80,185)"/>
<path d="M0 0 C3.91402949 1.26941497 5.79072873 2.51167694 8 6 C7.67 6.66 7.34 7.32 7 8 C5.8274869 7.04882866 4.66212985 6.08882991 3.5 5.125 C2.8503125 4.59132813 2.200625 4.05765625 1.53125 3.5078125 C1.0259375 3.01023437 0.520625 2.51265625 0 2 C0 1.34 0 0.68 0 0 Z " fill="#C9F3C7" transform="translate(1056,388)"/>
<path d="M0 0 C2.5 1.3125 2.5 1.3125 5 3 C5 3.99 5 4.98 5 6 C2.03 5.505 2.03 5.505 -1 5 C-0.34 4.67 0.32 4.34 1 4 C0.67 2.68 0.34 1.36 0 0 Z " fill="#F3F2F8" transform="translate(809,761)"/>
<path d="M0 0 C0 3.20395416 -0.74335022 5.09399739 -2 8 C-3.32 7.67 -4.64 7.34 -6 7 C-4.02 4.69 -2.04 2.38 0 0 Z " fill="#EBF6EF" transform="translate(6,230)"/>
</svg>
